<svg width="16" height="14" viewBox="0 0 16 14" fill="none" xmlns="http://www.w3.org/2000/svg">
<path d="M15.4401 10.8247V0.368291C15.4401 0.169215 15.2576 0 15.0428 0H0.397276C0.177164 0 0 0.169215 0 0.368291V10.8247C0 11.0288 0.177164 11.193 0.397276 11.193H3.36611L3.40369 13.6317C3.40369 13.781 3.5057 13.8905 3.62381 13.9652C3.68286 13.9801 3.74192 14 3.80097 14C3.8815 14 3.97814 13.9801 4.03719 13.9253L7.85964 11.193H15.0428C15.2576 11.193 15.4401 11.0288 15.4401 10.8247ZM14.6456 10.4614H7.72005C7.63952 10.4614 7.54289 10.4764 7.48383 10.5311L4.19825 12.8802L4.1553 10.8247C4.1553 10.6257 3.97814 10.4614 3.76339 10.4614H0.794554V0.736581H14.6456V10.4614Z" fill="#436372"/>
<path d="M11.8194 5.86078C11.8194 6.28455 11.4519 6.62523 10.9948 6.62523C10.5377 6.62523 10.1702 6.28455 10.1702 5.86078C10.1702 5.43701 10.5377 5.09633 10.9948 5.09633C11.4519 5.09633 11.8194 5.43701 11.8194 5.86078Z" fill="#436372"/>
<path d="M8.79596 5.86078C8.79596 6.28455 8.42847 6.62523 7.97135 6.62523C7.51422 6.62523 7.14673 6.28455 7.14673 5.86078C7.14673 5.43701 7.51422 5.09633 7.97135 5.09633C8.42847 5.09633 8.79596 5.43701 8.79596 5.86078Z" fill="#436372"/>
<path d="M5.77228 5.86078C5.77228 6.28455 5.40479 6.62523 4.94766 6.62523C4.49054 6.62523 4.12305 6.28455 4.12305 5.86078C4.12305 5.43701 4.49054 5.09633 4.94766 5.09633C5.40479 5.09633 5.77228 5.43701 5.77228 5.86078Z" fill="#436372"/>
</svg>
