<?xml version="1.0" encoding="UTF-8"?>
<svg xmlns="http://www.w3.org/2000/svg" xmlns:xlink="http://www.w3.org/1999/xlink" width="10px" height="12px" viewBox="0 0 10 11" version="1.1">
<g>
<path style=" stroke:none;fill-rule:nonzero;fill:#436372;fill-opacity:1;" d="M 9.789062 5.984375 L 6.21875 9.421875 C 6.082031 9.558594 5.898438 9.625 5.714844 9.625 C 5.53125 9.625 5.347656 9.558594 5.210938 9.421875 C 4.929688 9.15625 4.929688 8.71875 5.210938 8.453125 L 7.5625 6.1875 L 0.714844 6.1875 C 0.320312 6.1875 0 5.878906 0 5.5 C 0 5.121094 0.320312 4.8125 0.714844 4.8125 L 7.5625 4.8125 L 5.210938 2.546875 C 4.929688 2.28125 4.929688 1.84375 5.210938 1.574219 C 5.488281 1.308594 5.941406 1.308594 6.21875 1.574219 L 9.792969 5.011719 C 10.070312 5.28125 10.070312 5.71875 9.789062 5.984375 Z M 9.789062 5.984375 "/>
</g>
</svg>
